<?xml version="1.0" standalone="no"?>
<!DOCTYPE svg PUBLIC "-//W3C//DTD SVG 20010904//EN"
 "http://www.w3.org/TR/2001/REC-SVG-20010904/DTD/svg10.dtd">
<svg version="1.0" xmlns="http://www.w3.org/2000/svg"
 width="1200.000000pt" height="1200.000000pt" viewBox="0 0 1200.000000 1200.000000"
 preserveAspectRatio="xMidYMid meet">

<g transform="translate(0.000000,1200.000000) scale(0.100000,-0.100000)"
fill="#07F7F7" stroke="none">
<path d="M855 11753 c4 -32 215 -2395 470 -5251 254 -2856 464 -5194 466
-5196 11 -7 4187 -1156 4204 -1156 17 0 4205 1148 4213 1155 2 2 212 2342 467
5201 255 2860 467 5223 470 5252 l6 52 -5151 0 -5151 0 6 -57z m8379 -2125
c-5 -35 -50 -548 -84 -943 -11 -132 -22 -264 -26 -292 l-5 -53 -2468 0 -2467
0 52 -577 c29 -318 55 -613 59 -655 l7 -78 2349 0 2349 0 0 -25 c0 -14 -5 -67
-10 -118 -6 -51 -80 -873 -165 -1827 -169 -1890 -174 -1942 -184 -1952 -8 -9
-2622 -728 -2645 -728 -14 0 -2638 688 -2643 693 -6 7 -179 1984 -174 1990 4
4 297 6 651 5 l645 -3 45 -509 c42 -475 47 -510 65 -517 11 -5 326 -90 700
-189 374 -100 688 -183 698 -186 13 -4 17 1 17 20 0 21 7 27 38 35 20 6 314
80 652 165 338 86 645 163 681 172 l65 17 75 816 c41 449 73 819 71 824 -2 4
-1008 7 -2235 7 l-2233 0 -118 1333 c-187 2114 -214 2416 -222 2515 l-7 92
3236 0 3236 0 -5 -32z"/>
</g>
</svg>
