<?xml version="1.0" standalone="no"?>
<!DOCTYPE svg PUBLIC "-//W3C//DTD SVG 20010904//EN"
 "http://www.w3.org/TR/2001/REC-SVG-20010904/DTD/svg10.dtd">
<svg version="1.0" xmlns="http://www.w3.org/2000/svg"
 width="1280.000000pt" height="720.000000pt" viewBox="0 0 1280.000000 720.000000"
 preserveAspectRatio="xMidYMid meet">

<g transform="translate(0.000000,720.000000) scale(0.100000,-0.100000)"
fill="#00ff00" stroke="none">
<path d="M6150 7119 c-576 -63 -1069 -295 -1474 -693 -390 -384 -639 -886
-711 -1439 -17 -135 -20 -436 -5 -572 54 -488 254 -949 572 -1320 405 -472
938 -760 1558 -841 178 -23 536 -15 709 16 493 88 921 303 1276 642 490 468
755 1087 756 1763 0 298 -33 510 -122 781 -203 616 -663 1142 -1244 1424 -246
120 -460 186 -730 226 -122 18 -469 26 -585 13z m625 -88 c421 -74 790 -240
1105 -495 868 -704 1134 -1910 640 -2905 -362 -728 -1036 -1205 -1855 -1312
-116 -15 -434 -15 -550 0 -431 56 -816 211 -1155 465 -116 87 -297 260 -398
381 -597 714 -716 1730 -301 2571 354 718 1042 1207 1842 1309 165 21 514 14
672 -14z"/>
<path d="M6240 6954 c-19 -2 -78 -9 -130 -14 -231 -25 -483 -101 -715 -215
-253 -124 -443 -262 -637 -463 -415 -430 -638 -981 -638 -1580 0 -872 491
-1659 1275 -2043 534 -261 1149 -301 1717 -112 839 278 1446 1037 1539 1922
17 162 7 462 -21 621 -85 483 -306 899 -662 1245 -184 180 -343 292 -578 409
-301 149 -604 223 -950 231 -91 2 -181 1 -200 -1z m-20 -871 c-81 -62 -169
-163 -206 -238 -32 -65 -38 -88 -42 -159 -6 -107 15 -183 60 -221 32 -27 56
-29 116 -10 l22 7 0 -736 0 -736 41 -45 c22 -24 56 -49 76 -56 87 -28 218 12
349 108 l65 47 -3 631 -3 630 -31 66 c-18 36 -52 88 -78 114 -25 27 -44 50
-42 53 10 10 180 -19 225 -39 l50 -21 65 62 c154 148 353 272 575 356 75 28
251 77 257 72 2 -3 -11 -22 -30 -44 -153 -180 -360 -468 -377 -526 -10 -36
-11 -1118 0 -1283 l6 -100 45 -23 c106 -55 263 14 483 211 l101 91 -43 -79
c-185 -340 -446 -636 -728 -826 l-74 -50 -161 137 -161 137 -121 -129 c-66
-71 -144 -153 -172 -183 l-50 -54 -100 17 c-285 48 -550 145 -742 272 -83 56
-220 182 -242 224 -11 20 -10 21 27 14 91 -18 153 0 177 51 14 29 16 107 16
622 0 562 -1 589 -19 619 -24 39 -77 59 -134 50 -175 -28 -480 -345 -694 -721
l-63 -110 0 96 c0 116 20 230 62 347 85 241 218 437 481 709 328 339 596 522
937 639 115 40 125 41 80 7z"/>
<path d="M3162 1263 c4 -351 6 -364 67 -416 66 -55 256 -83 496 -74 272 11
352 36 395 122 25 50 25 52 28 368 l3 317 -114 0 -115 0 -4 -267 c-4 -306 -8
-324 -76 -342 -48 -14 -326 -14 -374 0 -62 17 -65 31 -71 324 -3 143 -6 266
-6 273 -1 9 -31 12 -117 12 l-116 0 4 -317z"/>
<path d="M4320 1185 l0 -395 115 0 115 0 0 296 c0 180 4 293 9 289 5 -3 112
-136 236 -295 l227 -290 179 0 179 0 -2 393 -3 392 -112 3 -113 3 -2 -301 -3
-301 -230 300 -230 300 -182 0 -183 1 0 -395z"/>
<path d="M5560 1185 l0 -395 115 0 115 0 0 111 0 111 173 -6 c94 -4 193 -9
220 -12 65 -8 83 -34 92 -129 l7 -75 115 0 116 0 -5 110 c-5 128 -18 156 -86
180 -23 8 -42 17 -42 20 1 3 19 14 42 25 65 32 83 77 82 205 0 122 -17 170
-71 206 -55 37 -139 44 -516 44 l-357 0 0 -395z m638 219 c55 -11 72 -37 72
-110 0 -56 -4 -68 -25 -89 -24 -25 -24 -25 -240 -25 l-215 0 0 115 0 115 189
0 c104 0 202 -3 219 -6z"/>
<path d="M6670 1185 l0 -395 435 0 435 0 0 85 0 85 -317 2 -318 3 0 70 0 70
298 3 298 2 -3 78 -3 77 -297 3 -298 2 0 70 0 70 315 0 315 0 0 85 0 85 -430
0 -430 0 0 -395z"/>
<path d="M8033 1568 c-17 -27 -421 -773 -419 -775 1 -1 55 -3 121 -4 l120 -2
35 67 35 66 260 -2 260 -3 33 -62 33 -63 125 0 126 0 -56 103 c-30 56 -126
233 -213 392 l-158 290 -147 3 c-110 2 -149 -1 -155 -10z m263 -360 c29 -59
50 -109 46 -111 -6 -3 -312 -1 -320 2 -1 1 34 74 79 163 l81 161 30 -54 c16
-30 54 -102 84 -161z"/>
<path d="M8862 1183 l3 -398 388 -3 388 -2 -3 92 -3 93 -267 3 -268 2 -2 303
-3 302 -118 3 -117 3 2 -398z"/>
<path d="M4700 295 l0 -225 248 2 247 3 0 45 0 45 -182 3 -183 2 0 40 0 40
170 0 170 0 0 45 0 45 -170 0 -170 0 0 45 0 45 180 0 180 0 0 45 0 45 -245 0
-245 0 0 -225z"/>
<path d="M5280 295 l0 -225 65 0 65 0 0 165 c0 91 3 165 8 165 4 -1 65 -75
135 -165 l129 -165 99 0 99 0 0 225 0 226 -62 -3 -63 -3 -5 -165 -5 -165 -130
168 -130 167 -102 0 -103 0 0 -225z"/>
<path d="M6118 511 c-81 -9 -106 -35 -119 -127 -6 -38 -7 -106 -3 -152 12
-149 63 -177 312 -170 158 4 215 18 240 59 8 12 16 61 19 110 l6 89 -152 0
-151 0 0 -40 0 -40 85 0 c83 0 85 -1 85 -24 0 -43 -23 -51 -152 -51 l-120 0
-25 29 c-23 27 -25 36 -21 107 5 115 10 119 164 119 119 0 123 -1 142 -25 17
-21 28 -25 76 -25 l56 0 0 39 c0 59 -33 92 -101 102 -63 9 -258 9 -341 0z"/>
<path d="M6670 290 l0 -221 63 3 62 3 3 218 2 217 -65 0 -65 0 0 -220z"/>
<path d="M6910 290 l0 -220 65 0 65 0 2 166 3 166 129 -166 130 -166 98 0 98
0 0 220 0 220 -60 0 -60 0 0 -160 c0 -88 -4 -160 -9 -160 -5 0 -64 72 -132
160 l-124 160 -102 0 -103 0 0 -220z"/>
<path d="M7620 290 l0 -220 245 0 245 0 0 50 0 50 -180 0 -180 0 0 40 0 40
165 0 165 0 0 45 0 45 -165 0 -165 0 0 40 0 40 175 0 175 0 0 45 0 45 -240 0
-240 0 0 -220z"/>
</g>
</svg>
