<?xml version="1.0" standalone="no"?>
<!DOCTYPE svg PUBLIC "-//W3C//DTD SVG 20010904//EN"
 "http://www.w3.org/TR/2001/REC-SVG-20010904/DTD/svg10.dtd">
<svg version="1.0" xmlns="http://www.w3.org/2000/svg"
 width="1045.000000pt" height="603.000000pt" viewBox="0 0 1045.000000 603.000000"
 preserveAspectRatio="xMidYMid meet">

<g transform="translate(0.000000,603.000000) scale(0.100000,-0.100000)"
fill="#00ff00" stroke="none">
<path d="M3201 5943 c17 -32 39 -70 48 -85 56 -92 101 -170 135 -232 22 -39
42 -73 45 -76 4 -3 12 -16 18 -30 7 -14 26 -47 43 -75 17 -27 33 -57 37 -65 3
-8 11 -22 18 -30 7 -8 26 -40 43 -70 61 -112 121 -216 155 -270 19 -30 51 -86
72 -125 21 -38 42 -75 46 -81 5 -6 26 -42 47 -80 35 -61 79 -138 132 -229 10
-16 33 -57 53 -90 19 -33 57 -97 83 -143 86 -146 114 -197 120 -214 4 -10 10
-18 15 -18 5 0 9 -5 9 -11 0 -6 8 -23 18 -37 11 -15 32 -52 47 -82 16 -30 34
-62 41 -70 6 -8 25 -40 41 -70 44 -80 170 -297 203 -350 15 -25 38 -63 51 -85
12 -22 33 -60 47 -85 14 -25 30 -54 36 -65 6 -11 41 -69 76 -128 36 -60 71
-120 79 -135 20 -40 121 -213 141 -242 9 -14 32 -54 51 -90 18 -36 37 -66 41
-68 5 -2 8 -8 8 -13 0 -14 61 -109 70 -109 9 0 54 69 103 160 19 36 67 120
106 187 39 67 71 126 71 132 0 6 4 11 8 11 4 0 25 30 45 68 21 37 52 92 68
122 17 30 46 79 65 107 19 29 42 70 52 90 9 21 32 59 50 85 17 26 32 50 32 53
0 4 15 32 34 63 82 138 136 233 136 238 0 2 16 28 35 57 19 28 35 57 35 64 0
6 4 13 8 15 4 1 25 35 47 73 21 39 47 86 59 105 11 19 27 50 37 68 10 18 22
38 27 45 5 7 19 29 31 50 48 86 61 108 85 146 15 22 26 43 26 46 0 2 16 29 35
59 19 30 35 57 35 59 0 5 141 249 258 447 31 52 64 109 73 125 8 17 55 98 104
180 48 83 101 175 118 205 17 30 64 110 104 177 40 68 73 125 73 127 0 4 68
123 119 209 l23 37 -649 0 -650 0 -11 -22 c-17 -35 -73 -132 -82 -143 -4 -5
-19 -30 -33 -55 -13 -25 -40 -72 -59 -105 -35 -60 -145 -249 -293 -505 -43
-74 -89 -155 -103 -180 -14 -25 -33 -57 -43 -72 -11 -14 -19 -31 -19 -37 0 -6
-4 -11 -10 -11 -5 0 -10 -4 -10 -9 0 -20 -127 -226 -141 -229 -9 -1 -22 11
-32 30 -25 50 -76 139 -103 180 -13 21 -24 39 -24 42 0 2 -43 77 -95 166 -52
89 -95 166 -95 171 0 5 -4 9 -9 9 -5 0 -11 8 -15 18 -3 9 -21 44 -41 77 -19
33 -45 78 -56 100 -12 22 -29 51 -39 65 -9 14 -28 45 -42 70 -14 25 -42 74
-63 110 -21 36 -49 85 -63 110 -14 25 -44 77 -67 115 -22 39 -44 78 -48 88 -6
16 -47 17 -658 17 l-651 0 33 -57z"/>
</g>
</svg>
