<?xml version="1.0" standalone="no"?>
<!DOCTYPE svg PUBLIC "-//W3C//DTD SVG 20010904//EN"
 "http://www.w3.org/TR/2001/REC-SVG-20010904/DTD/svg10.dtd">
<svg version="1.0" xmlns="http://www.w3.org/2000/svg"
 width="900.000000pt" height="900.000000pt" viewBox="0 0 1000.000000 1000.000000"
 preserveAspectRatio="xMidYMid meet">

<g transform="translate(0.000000,1000.000000) scale(0.100000,-0.100000)"
fill="#07F7F7" stroke="none">
<path d="M1437 7888 c2 -18 17 -186 33 -373 16 -187 39 -443 50 -570 11 -126
32 -356 45 -510 14 -154 34 -381 45 -505 11 -124 24 -279 30 -345 6 -66 19
-221 30 -345 11 -124 34 -378 50 -565 17 -187 46 -520 66 -740 63 -713 56
-638 143 -1629 22 -250 43 -441 49 -445 6 -3 568 -165 1249 -360 l1238 -353
1180 336 c649 186 1210 346 1247 357 l67 21 5 51 c4 29 20 210 36 402 17 193
51 575 75 850 24 275 67 757 95 1070 27 314 72 827 100 1140 28 314 71 800 95
1080 72 819 95 1070 110 1240 8 88 15 175 15 193 l0 32 -3028 0 -3028 0 3 -32z
m4651 -1393 c5 -5 -8 -225 -73 -1260 -18 -302 -46 -741 -60 -975 -45 -742 -76
-1245 -78 -1246 -1 -1 -319 -106 -707 -234 -625 -206 -708 -231 -735 -222 -16
6 -334 111 -705 233 -371 122 -676 223 -678 224 -5 5 -55 975 -50 980 2 2 164
5 359 5 l354 1 6 -88 c4 -48 7 -140 8 -203 1 -63 4 -124 7 -135 4 -17 69 -42
367 -143 l362 -123 355 121 c195 66 359 125 364 130 8 8 55 636 56 742 l0 48
-782 2 -783 3 -17 305 c-9 168 -17 331 -17 363 l-1 57 819 0 820 0 5 43 c5 37
23 281 42 560 l7 97 -1232 0 c-677 0 -1231 3 -1231 8 0 4 -12 161 -26 350 -14
189 -24 349 -21 355 3 9 395 11 1632 10 895 -1 1630 -5 1633 -8z"/>
</g>
</svg>
